<svg width="80" height="28" viewBox="0 0 80 28" fill="none" xmlns="http://www.w3.org/2000/svg">
<path d="M79.3275 0H1.01902C0.456097 0 0 0.454835 0 1.01658V28H5.24094V5.10915H74.7646V28H80V0.67053C79.9991 0.300097 79.6981 0 79.3275 0Z" fill="white"/>
<path d="M21.8121 22.1168L24.1753 22.1234L24.1697 24.1987C24.1697 24.3019 24.1214 24.4004 24.0369 24.4595C23.2659 25.0034 22.3797 25.2782 21.3978 25.2753C18.9139 25.2688 17.0458 23.3857 17.0523 20.8949C17.0589 18.4453 18.9278 16.5313 21.3068 16.5378C22.4586 16.5406 23.5575 17.0095 24.4038 17.8583C24.4892 17.9445 24.6295 17.9427 24.7131 17.8545L26.3824 16.1017C26.4641 16.0164 26.4613 15.8804 26.3768 15.7988C25.0652 14.5244 23.2742 13.8191 21.3328 13.8135C19.2836 13.8079 17.4174 14.5356 16.0798 15.8607C14.7672 17.1615 14.0417 18.9461 14.0362 20.8864C14.025 24.9293 17.161 27.9875 21.3319 27.9987C23.695 28.0053 25.8102 27.0478 27.1348 25.3719C27.1654 25.2613 27.1812 25.1478 27.1822 25.0324L27.197 19.6213C27.197 19.5022 27.1004 19.4056 26.9815 19.4047L21.8186 19.3906C21.6997 19.3906 21.6022 19.4872 21.6022 19.6063L21.5957 21.8983C21.5957 22.0193 21.6923 22.1168 21.8121 22.1168Z" fill="white"/>
<path d="M35.7801 13.8125C31.6752 13.8125 28.5801 16.8613 28.5801 20.9051C28.5801 24.948 31.6752 27.9977 35.7801 27.9977C39.885 27.9977 42.9801 24.9489 42.9801 20.9051C42.9801 16.8622 39.885 13.8125 35.7801 13.8125ZM35.7801 25.2743C33.4337 25.2743 31.5953 23.3556 31.5953 20.906C31.5953 18.4565 33.4337 16.5378 35.7801 16.5378C38.1265 16.5378 39.9649 18.4565 39.9649 20.906C39.9649 23.3546 38.1265 25.2743 35.7801 25.2743Z" fill="white"/>
<path d="M48.199 14.1352L42.4258 27.5814C42.3803 27.6883 42.4583 27.8065 42.5744 27.8065H45.3546C45.441 27.8065 45.52 27.7549 45.5534 27.6752L46.7322 24.9115C46.7489 24.8721 46.788 24.8458 46.8316 24.8458H51.7799C51.8227 24.8458 51.8626 24.8721 51.8793 24.9115L53.0581 27.6752C53.0916 27.7549 53.1705 27.8065 53.2569 27.8065H55.9545C56.1096 27.8065 56.2146 27.648 56.1533 27.5054L50.4126 14.1342C50.3782 14.0554 50.3002 14.0029 50.2138 14.0029H48.3959C48.3114 14.0039 48.2324 14.0554 48.199 14.1352ZM50.5891 22.1224H48.0039C47.9649 22.1224 47.9389 22.083 47.9537 22.0474L49.2468 19.0464C49.2654 19.0033 49.3276 19.0033 49.3462 19.0464L50.6392 22.0474C50.6541 22.0821 50.6281 22.1224 50.5891 22.1224Z" fill="white"/>
<path d="M60.2977 25.0831V14.2196C60.2977 14.1005 60.2011 14.0039 60.0812 14.0039H57.4979C57.379 14.0039 57.2815 14.1005 57.2815 14.2196V27.5908C57.2815 27.7099 57.3781 27.8065 57.4979 27.8065H65.7263C65.8461 27.8065 65.9427 27.7099 65.9427 27.5908V25.191C65.9427 25.1309 65.8944 25.0831 65.8349 25.0831H60.2977Z" fill="white"/>
<path d="M71.4376 11.2705C71.4376 9.75872 70.2393 8.52832 68.7688 8.52832C67.2956 8.52832 66.0991 9.75872 66.0991 11.2705C66.0991 12.7822 67.2956 14.0126 68.7688 14.0126C70.2393 14.0126 71.4376 12.7822 71.4376 11.2705Z" fill="white"/>
<path d="M2.31672 24.823V25.2703H2.65206C2.76539 25.2703 2.82298 25.2525 2.86199 25.2159C2.90658 25.1737 2.93352 25.1128 2.93352 25.0462C2.93352 24.9796 2.90658 24.9196 2.86199 24.8764C2.82298 24.8399 2.76631 24.822 2.65206 24.822H2.31672V24.823ZM2.65856 24.7686C2.7756 24.7686 2.84713 24.7892 2.89543 24.8295C2.9586 24.8811 2.9939 24.9599 2.9939 25.0471C2.9939 25.1343 2.95767 25.2131 2.89543 25.2647C2.84713 25.3041 2.7756 25.3256 2.65856 25.3256H2.6437L3.1258 25.9277H3.05985L2.57774 25.3256H2.31672V25.9277H2.25727V24.7695H2.65856V24.7686ZM2.61955 26.36C3.16761 26.36 3.61441 25.9099 3.61441 25.3557C3.61441 24.8024 3.16761 24.3513 2.61955 24.3513C2.07149 24.3513 1.62468 24.8014 1.62468 25.3557C1.62468 25.909 2.07149 26.36 2.61955 26.36ZM2.61955 24.2969C3.19826 24.2969 3.66829 24.7714 3.66829 25.3557C3.66829 25.9399 3.19826 26.4144 2.61955 26.4144C2.04083 26.4144 1.5708 25.9399 1.5708 25.3557C1.5708 24.7723 2.04176 24.2969 2.61955 24.2969Z" fill="black"/>
</svg>
